<svg xmlns="http://www.w3.org/2000/svg" width="41.071" height="41.071" viewBox="0 0 41.071 41.071">
  <path id="Icon_awesome-phone" data-name="Icon awesome-phone" d="M32.316,1.611,25.5.039a1.582,1.582,0,0,0-1.8.91L20.559,8.285a1.568,1.568,0,0,0,.452,1.834l3.969,3.249A24.274,24.274,0,0,1,13.374,24.973L10.126,21a1.57,1.57,0,0,0-1.834-.452L.956,23.7A1.591,1.591,0,0,0,.039,25.5l1.572,6.812a1.571,1.571,0,0,0,1.533,1.218,30.387,30.387,0,0,0,30.39-30.39A1.57,1.57,0,0,0,32.316,1.611Z" transform="matrix(-0.259, 0.966, -0.966, -0.259, 41.07, 8.68)" fill="#fff"/>
</svg>
