<svg xmlns="http://www.w3.org/2000/svg" width="13.698" height="9.247" viewBox="0 0 13.698 9.247">
  <path id="Icon_zocial-email" data-name="Icon zocial-email" d="M.072,12.5V4.887q0-.013.04-.251L4.59,8.467.125,12.76A1.12,1.12,0,0,1,.072,12.5ZM.666,4.108a.569.569,0,0,1,.225-.04h12.06a.748.748,0,0,1,.238.04L8.7,7.952,8.1,8.427l-1.176.964L5.752,8.427l-.594-.476ZM.68,13.275l4.5-4.32,1.744,1.413L8.672,8.956l4.5,4.32a.634.634,0,0,1-.225.04H.891a.6.6,0,0,1-.211-.04ZM9.266,8.467l4.465-3.831a.788.788,0,0,1,.04.251V12.5a1.012,1.012,0,0,1-.04.264Z" transform="translate(-0.072 -4.068)" fill="#4b6768"/>
</svg>
