<svg xmlns="http://www.w3.org/2000/svg" width="14.849" height="15.472" viewBox="0 0 14.849 15.472">
  <path id="Icon_awesome-phone" data-name="Icon awesome-phone" d="M12.353.573l-2.6-.56A.617.617,0,0,0,9.06.338l-1.2,2.611a.534.534,0,0,0,.173.653L9.549,4.758A8.985,8.985,0,0,1,5.112,8.89L3.87,7.477a.63.63,0,0,0-.7-.161L.365,8.435a.557.557,0,0,0-.351.644l.6,2.425a.593.593,0,0,0,.586.434c6.412,0,11.617-4.838,11.617-10.819A.569.569,0,0,0,12.353.573Z" transform="matrix(-0.259, 0.966, -0.966, -0.259, 14.848, 3.09)" fill="#4b6768"/>
</svg>
