<svg xmlns="http://www.w3.org/2000/svg" width="37.04" height="25.003" viewBox="0 0 37.04 25.003">
  <path id="Icon_zocial-email" data-name="Icon zocial-email" d="M.072,26.856V6.283q0-.036.107-.679L12.288,15.962.215,27.571a3.027,3.027,0,0,1-.143-.714ZM1.679,4.175a1.539,1.539,0,0,1,.607-.107H34.9a2.023,2.023,0,0,1,.643.107L23.4,14.569l-1.607,1.286L18.61,18.463l-3.179-2.607-1.607-1.286Zm.036,24.789L13.9,17.284l4.715,3.822,4.715-3.822L35.5,28.964a1.715,1.715,0,0,1-.607.107H2.287a1.618,1.618,0,0,1-.571-.107Zm23.217-13L37,5.6a2.132,2.132,0,0,1,.107.679V26.856a2.738,2.738,0,0,1-.107.714Z" transform="translate(-0.072 -4.068)" fill="#fff"/>
</svg>
