<svg xmlns="http://www.w3.org/2000/svg" width="254.011" height="253.349" viewBox="0 0 254.011 253.349">
  <path id="Path_1350" data-name="Path 1350" d="M876.977,391.376c-30.562,0-68.182-15.385-103.047-42.555-39.117-30.482-64.693-67.955-68.42-100.237-4.166-31.44,12.008-58.194,46.777-77.347,34.436-18.974,75.8-27.483,104.44-31.281,37.246-4.307,58.244-1.529,72.5,9.585h0c14.259,11.114,22.083,30.8,27.005,67.945,3.317,28.719,5.17,70.911-4.814,108.936-10.079,38.394-32.07,60.615-63.6,64.259A82.414,82.414,0,0,1,876.977,391.376Zm8.845-251.093a253.949,253.949,0,0,0-28.816,1.918c-28.427,3.77-69.5,12.213-103.627,31.018-33.884,18.666-49.66,44.63-45.624,75.086,3.662,31.712,28.919,68.613,67.566,98.731s80.611,45.6,112.228,41.4c30.537-3.532,51.861-25.175,61.684-62.589,9.894-37.685,8.049-79.579,4.757-108.085-4.833-36.475-12.411-55.729-26.152-66.437h0C918.219,143.829,905.271,140.283,885.822,140.283Z" transform="translate(-704.869 -138.027)" fill="#4b6768"/>
</svg>
