<svg xmlns="http://www.w3.org/2000/svg" width="747.848" height="953.216" viewBox="0 0 747.848 953.216">
  <g id="Group_2050" data-name="Group 2050" transform="translate(373.532 -1291.331)">
    <path id="Path_1243" data-name="Path 1243" d="M1245.323,142.832c-24.969,0-53.5,1.947-86.378,5.748-85.214,11.3-208.333,36.611-310.631,92.981C746.745,297.514,699.454,375.343,711.552,466.639c10.977,95.059,86.689,205.673,202.537,295.954S1155.727,899.283,1250.5,886.7c91.539-10.589,155.459-75.464,184.9-187.617,29.658-112.964,24.129-238.545,14.259-324-14.487-109.337-37.2-167.052-78.392-199.153h0C1342.436,153.46,1303.626,142.832,1245.323,142.832Z" transform="translate(-1083.231 1148.499)" fill="#fafafa"/>
    <path id="Path_1333" data-name="Path 1333" d="M1059.724,142.832a497.463,497.463,0,0,0-56.447,3.756c-55.686,7.386-136.144,23.925-202.994,60.762C733.908,243.915,703,294.776,710.91,354.437c7.173,62.12,56.65,134.405,132.356,193.4s157.908,89.325,219.844,81.1c59.82-6.919,101.591-49.315,120.833-122.606,19.381-73.821,15.768-155.887,9.318-211.728-9.467-71.451-24.312-109.167-51.228-130.144h0C1123.186,149.777,1097.824,142.832,1059.724,142.832Z" transform="translate(-964.662 1612.73)" fill="none" stroke="#b39690" stroke-width="3"/>
  </g>
</svg>
