<svg xmlns="http://www.w3.org/2000/svg" width="491.89" height="490.484" viewBox="0 0 491.89 490.484">
  <path id="Path_1320" data-name="Path 1320" d="M1059.724,142.832a497.463,497.463,0,0,0-56.447,3.756c-55.686,7.386-136.144,23.925-202.994,60.762C733.908,243.915,703,294.776,710.91,354.437c7.173,62.12,56.65,134.405,132.356,193.4s157.908,89.325,219.844,81.1c59.82-6.919,101.591-49.315,120.833-122.606,19.381-73.821,15.768-155.887,9.318-211.728-9.467-71.451-24.312-109.167-51.228-130.144h0C1123.186,149.777,1097.824,142.832,1059.724,142.832Z" transform="translate(-708.183 -141.332)" fill="none" stroke="#587979" stroke-width="3"/>
</svg>
