<svg xmlns="http://www.w3.org/2000/svg" width="75.735" height="33.616" viewBox="0 0 75.735 33.616">
  <g id="Group_2026" data-name="Group 2026" transform="translate(-1599.896 -6173.789)">
    <path id="Path_1230" data-name="Path 1230" d="M28.262,14.416c-.874-3.273-3.736-4.555-6.9-2.858-3.164-1.7-6.026-.415-6.9,2.858-3.272.873-4.554,3.735-2.857,6.9-1.7,3.164-.415,6.026,2.857,6.9a4.856,4.856,0,0,0,2.2,3.094v11.1h9.406v-11.1a4.852,4.852,0,0,0,2.2-3.094c3.272-.873,4.554-3.736,2.858-6.9C32.816,18.151,31.534,15.289,28.262,14.416Z" transform="translate(1590.057 6163.998)" fill="none" stroke="#FFFFFF" stroke-miterlimit="10" stroke-width="2"/>
    <path id="Path_718" data-name="Path 718" d="M66.842,20.538A2.108,2.108,0,0,0,69.1,22.286c.466,0,1.041-.254,1.041-.8,0-1.308-4.2-.561-4.2-2.95a2.214,2.214,0,0,1,2.442-2,3.548,3.548,0,0,1,1.961.655l.268-.454h.734v2.227h-.868A1.9,1.9,0,0,0,68.5,17.5c-.44,0-1.014.187-1.014.721,0,1.041,4.2.546,4.2,2.989,0,1.4-1.187,1.974-2.442,1.974a3.26,3.26,0,0,1-2.228-.679l-.268.48h-.88V20.538Z" transform="translate(1559.958 6160.865)" fill="#FFFFFF"/>
    <path id="Path_719" data-name="Path 719" d="M81.9,17.83h.026a2.291,2.291,0,0,1,2.094-1.3c1.855,0,2.643,1.682,2.643,3.324s-.788,3.32-2.643,3.32a2.424,2.424,0,0,1-2.069-1.146h-.039V24.34c0,.4.12.588.533.588h.841v.881h-4.23v-.881h.735c.413,0,.534-.187.534-.588V18.2c0-.4-.121-.587-.534-.587h-.694v-.881h2.8Zm.038,2.028c0,1.533.668,2.281,1.563,2.281.759,0,1.373-.788,1.373-2.281,0-1.709-.64-2.282-1.373-2.282C82.6,17.577,81.934,18.323,81.934,19.859Z" transform="translate(1552.746 6160.865)" fill="#FFFFFF"/>
    <path id="Path_720" data-name="Path 720" d="M97.087,19.885V19H97.7c.374,0,.534-.147.534-.534V15.054c0-.386-.16-.533-.534-.533h-.614V13.64H99.81v4.83c0,.387.159.534.532.534H101v.88Zm1.762-9.008a.961.961,0,1,1-.961.961A.967.967,0,0,1,98.849,10.877Z" transform="translate(1542.878 6163.961)" fill="#FFFFFF"/>
    <path id="Path_721" data-name="Path 721" d="M112.235,20.418a2.609,2.609,0,0,1-2.87,2.761c-2.055,0-3.137-1.186-3.137-3.334a3.264,3.264,0,0,1,3.3-3.31c1.548,0,2.749.84,2.749,1.962a1.028,1.028,0,0,1-.961,1.107c-.466,0-1.04-.24-1.04-.8a.766.766,0,0,1,.786-.868,1.488,1.488,0,0,0-1.266-.52c-1.388,0-1.775,1.307-1.775,2.321s.333,2.323,1.721,2.323c.8,0,1.361-.681,1.454-1.642Z" transform="translate(1537.876 6160.865)" fill="#FFFFFF"/>
    <path id="Path_722" data-name="Path 722" d="M120.6,16.978h3.858v.881h-.575c-.225,0-.385.093-.385.293a1.447,1.447,0,0,0,.121.374l1.2,2.827h.024l1.11-2.708a1.26,1.26,0,0,0,.119-.467c0-.173-.187-.32-.427-.32h-.574v-.881h3.214v.881a1.012,1.012,0,0,0-1.092.6L125.032,23.6c-.734,1.748-1.428,2.455-2.67,2.455a1.633,1.633,0,0,1-1.773-1.614,1.043,1.043,0,0,1,1.025-1.173.88.88,0,0,1,.922.84.719.719,0,0,1-.654.761c-.105,0-.239-.014-.346-.014a.7.7,0,0,0,.655.32,1.449,1.449,0,0,0,1.44-.974l.44-.974-2.255-4.843c-.158-.347-.533-.52-1.215-.52Z" transform="translate(1530.019 6160.623)" fill="#FFFFFF"/>
    <path id="Path_723" data-name="Path 723" d="M67.406,39.3h.026a2.243,2.243,0,0,1,1.774-1.028c1.948,0,2.723,1.616,2.723,3.164,0,2.216-.934,3.483-2.774,3.483A2.332,2.332,0,0,1,67.166,44l-.494.721h-.84V37.289c0-.386-.161-.532-.534-.532h-.52v-.882h2.628Zm1.361.015c-.893,0-1.374.747-1.374,2.281,0,1.629.293,2.281,1.374,2.281.894,0,1.375-.746,1.375-2.281C70.143,39.971,69.849,39.318,68.767,39.318Z" transform="translate(1560.555 6150.283)" fill="#FFFFFF"/>
    <path id="Path_724" data-name="Path 724" d="M84.446,42.39h.027c.533-.8.948-1.216,1.668-1.216a1.469,1.469,0,0,1,1.613,1.47,1.024,1.024,0,0,1-1.012,1.12.86.86,0,0,1-.948-.855.815.815,0,0,1,.879-.8.717.717,0,0,0-.56-.186,1.866,1.866,0,0,0-1.654,2.054v2.229c0,.386.161.534.534.534h.841v.88H81.617v-.88h.735c.374,0,.533-.148.533-.534V42.79c0-.386-.159-.534-.533-.534h-.735v-.88h2.829Z" transform="translate(1551.342 6147.385)" fill="#FFFFFF"/>
    <path id="Path_725" data-name="Path 725" d="M99.492,41.174a3.325,3.325,0,1,1-3.43,3.324A3.154,3.154,0,0,1,99.492,41.174Zm0,5.766c1.08,0,1.641-.841,1.641-2.442s-.561-2.442-1.641-2.442-1.641.841-1.641,2.442S98.412,46.94,99.492,46.94Z" transform="translate(1543.438 6147.385)" fill="#FFFFFF"/>
    <path id="Path_726" data-name="Path 726" d="M118.455,45.059a2.61,2.61,0,0,1-2.87,2.762c-2.056,0-3.137-1.187-3.137-3.336a3.264,3.264,0,0,1,3.3-3.311c1.547,0,2.748.843,2.748,1.964a1.029,1.029,0,0,1-.961,1.107c-.466,0-1.041-.24-1.041-.8a.767.767,0,0,1,.787-.869,1.489,1.489,0,0,0-1.266-.52c-1.388,0-1.777,1.308-1.777,2.322s.336,2.321,1.724,2.321c.8,0,1.36-.68,1.452-1.641Z" transform="translate(1534.473 6147.385)" fill="#FFFFFF"/>
    <path id="Path_727" data-name="Path 727" d="M133.063,45.059a2.607,2.607,0,0,1-2.867,2.762c-2.056,0-3.138-1.187-3.138-3.336a3.264,3.264,0,0,1,3.3-3.311c1.55,0,2.75.843,2.75,1.964a1.029,1.029,0,0,1-.963,1.107c-.466,0-1.041-.24-1.041-.8a.767.767,0,0,1,.788-.869,1.49,1.49,0,0,0-1.267-.52c-1.387,0-1.775,1.308-1.775,2.322s.334,2.321,1.722,2.321c.8,0,1.36-.68,1.453-1.641Z" transform="translate(1526.479 6147.385)" fill="#FFFFFF"/>
    <path id="Path_728" data-name="Path 728" d="M145.113,41.174a3.325,3.325,0,1,1-3.43,3.324A3.154,3.154,0,0,1,145.113,41.174Zm0,5.766c1.081,0,1.64-.841,1.64-2.442s-.559-2.442-1.64-2.442-1.64.841-1.64,2.442S144.032,46.94,145.113,46.94Z" transform="translate(1518.478 6147.385)" fill="#FFFFFF"/>
    <path id="Path_729" data-name="Path 729" d="M157.37,44.721v-.88h.653c.374,0,.534-.148.534-.534V37.289c0-.386-.16-.532-.534-.532h-.653v-.882h2.762v7.433c0,.386.16.534.533.534h.629v.88Z" transform="translate(1509.895 6150.283)" fill="#FFFFFF"/>
    <path id="Path_730" data-name="Path 730" d="M167.206,44.527v-.88h.614c.375,0,.534-.148.534-.534V39.7c0-.386-.158-.534-.534-.534h-.614v-.88h2.722v4.83c0,.386.162.534.534.534h.656v.88Zm1.761-9.008a.961.961,0,1,1-.959.961A.964.964,0,0,1,168.967,35.519Z" transform="translate(1504.513 6150.479)" fill="#FFFFFF"/>
    <path id="Path_731" data-name="Path 731" d="M68.353,64.891h.026A2.3,2.3,0,0,1,70.5,63.557a1.683,1.683,0,0,1,1.775,1.267,2.592,2.592,0,0,1,2.216-1.267,1.779,1.779,0,0,1,1.854,1.881v3.149c0,.388.16.533.534.533h.706V70H73.852v-.882h.388c.373,0,.532-.146.532-.533V65.438a.857.857,0,0,0-.947-.841,1.556,1.556,0,0,0-1.482,1.588v2.4c0,.388.161.533.534.533h.361V70h-3.4v-.882h.4c.373,0,.533-.146.533-.533v-2.8c0-.693-.134-1.187-.935-1.187a1.593,1.593,0,0,0-1.494,1.588v2.4c0,.388.16.533.534.533h.4V70h-3.79v-.882h.747c.373,0,.534-.146.534-.533V65.17c0-.385-.161-.532-.534-.532h-.747v-.882h2.868Z" transform="translate(1560.168 6135.138)" fill="#FFFFFF"/>
    <path id="Path_732" data-name="Path 732" d="M94.59,67.039c-.042,1.041.28,2.162,1.521,2.162a1.5,1.5,0,0,0,1.615-1.414h1.106A2.543,2.543,0,0,1,95.964,70.2c-2.069,0-3.162-1.161-3.162-3.323a3.068,3.068,0,0,1,3.1-3.322,3.033,3.033,0,0,1,2.962,3.482Zm2.481-.88c.014-.84-.252-1.668-1.2-1.668-.908,0-1.24.829-1.28,1.668Z" transform="translate(1545.222 6135.138)" fill="#FFFFFF"/>
    <path id="Path_733" data-name="Path 733" d="M112.316,66.006h-.025a2.293,2.293,0,0,1-2.1,1.294c-1.855,0-2.642-1.682-2.642-3.323s.974-3.322,2.642-3.322a2.517,2.517,0,0,1,2.1,1.147h.025v-2.08c0-.4-.133-.588-.548-.588h-.837v-.879h2.96v7.379c0,.4.12.586.534.586h.693V67.1h-2.8Zm-1.6.252c.894,0,1.6-.745,1.6-2.361,0-1.455-.706-2.2-1.6-2.2s-1.374.746-1.374,2.281S109.823,66.259,110.715,66.259Z" transform="translate(1537.152 6138.039)" fill="#FFFFFF"/>
    <path id="Path_734" data-name="Path 734" d="M125.433,66.907v-.882h.615c.374,0,.532-.146.532-.533V62.075c0-.385-.158-.532-.532-.532h-.615v-.882h2.72v4.831c0,.388.163.533.535.533h.655v.882Zm1.761-9.007a.96.96,0,1,1-.961.961A.964.964,0,0,1,127.194,57.9Z" transform="translate(1527.369 6138.232)" fill="#FFFFFF"/>
    <path id="Path_735" data-name="Path 735" d="M142.238,67.681v.4c0,1.5-.6,2.122-1.722,2.122a1.2,1.2,0,0,1-1.347-.987,2.49,2.49,0,0,1-2.188.987c-1.041,0-1.857-.494-1.857-1.7,0-2.587,4-1.334,4-3.215,0-.855-.719-1.014-1.427-1.014a1.73,1.73,0,0,0-1.242.441c.494-.067.882.147.882.693,0,.6-.414.788-.936.788a.947.947,0,0,1-.96-.988c0-1.36,1.628-1.654,2.683-1.654,1.8,0,2.575.813,2.575,1.936V68.76c0,.293.121.441.32.441s.362-.187.362-1.014v-.506Zm-3.11-.976-1.414.64c-.389.174-.8.387-.8,1.014,0,.562.253.841.8.841a1.477,1.477,0,0,0,1.414-1.628Z" transform="translate(1522.066 6135.138)" fill="#FFFFFF"/>
  </g>
</svg>
