<svg xmlns="http://www.w3.org/2000/svg" width="331.232" height="330.369" viewBox="0 0 331.232 330.369">
  <path id="Path_1243" data-name="Path 1243" d="M929.3,468.4c-39.853,0-88.909-20.062-134.374-55.492-51.008-39.749-84.36-88.614-89.22-130.71-5.432-41,15.658-75.885,61-100.861,44.9-24.742,98.846-35.838,136.19-40.791,48.569-5.616,75.95-1.994,94.544,12.5h0c18.594,14.492,28.8,40.161,35.215,88.6,4.325,37.449,6.741,92.468-6.277,142.053-13.143,50.066-41.819,79.042-82.928,83.794A107.473,107.473,0,0,1,929.3,468.4Zm11.533-327.426a331.15,331.15,0,0,0-37.576,2.5c-37.069,4.917-90.629,15.926-135.13,40.448-44.184,24.34-64.757,58.2-59.494,97.913,4.775,41.352,37.711,89.471,88.107,128.745s105.117,59.462,146.346,53.988c39.821-4.606,67.627-32.828,80.436-81.617,12.9-49.141,10.5-103.771,6.2-140.944-6.3-47.564-16.184-72.671-34.1-86.635h0C983.078,145.593,966.2,140.969,940.833,140.969Z" transform="translate(-704.869 -138.027)" fill="#4b6768"/>
</svg>
