<svg xmlns="http://www.w3.org/2000/svg" width="547.123" height="574.862" viewBox="0 0 547.123 574.862">
  <g id="Group_2055" data-name="Group 2055" transform="translate(-1408.929 -3517.734)">
    <path id="Path_1242" data-name="Path 1242" d="M857.331,470.255c-64.055,0-142.941-32.283-216.108-89.3C559.154,317,505.493,238.441,497.687,170.819,488.99,105.177,522.815,49.3,595.5,9.255,667.809-30.581,754.717-48.456,814.89-56.436c78.013-9.015,121.943-3.246,151.669,19.919s46.06,64.361,56.37,142.186c6.964,60.319,10.863,148.958-10.1,228.807C991.753,414.748,945.836,461.2,880.04,468.8A173,173,0,0,1,857.331,470.255ZM875.947-58.234c-17.587,0-37.665,1.369-60.779,4.043C755.206-46.239,668.595-28.43,596.6,11.239c-71.8,39.557-105.23,94.644-96.664,159.3,7.742,67.051,61.08,145.035,142.683,208.627s170.258,96.245,237.146,87.39c64.812-7.494,110.061-53.366,130.88-132.656,20.873-79.509,16.983-167.849,10.043-227.955C1010.463,28.794,994.377-11.97,965.169-34.73,944.691-50.691,917.2-58.234,875.947-58.234Z" transform="translate(912.58 3578.222)" fill="#88a1a1"/>
    <path id="Path_1243" data-name="Path 1243" d="M876.977,391.376c-30.562,0-68.182-15.385-103.047-42.555-39.117-30.482-64.693-67.955-68.42-100.237-4.166-31.44,12.008-58.194,46.777-77.347,34.436-18.974,75.8-27.483,104.44-31.281,37.246-4.307,58.244-1.529,72.5,9.585h0c14.259,11.114,22.083,30.8,27.005,67.945,3.317,28.719,5.17,70.911-4.814,108.936-10.079,38.394-32.07,60.615-63.6,64.259A82.414,82.414,0,0,1,876.977,391.376Zm8.845-251.093a253.949,253.949,0,0,0-28.816,1.918c-28.427,3.77-69.5,12.213-103.627,31.018-33.884,18.666-49.66,44.63-45.624,75.086,3.662,31.712,28.919,68.613,67.566,98.731s80.611,45.6,112.228,41.4c30.537-3.532,51.861-25.175,61.684-62.589,9.894-37.685,8.049-79.579,4.757-108.085-4.833-36.475-12.411-55.729-26.152-66.437h0C918.219,143.829,905.271,140.283,885.822,140.283Z" transform="translate(997.172 3701.221)" fill="#4b6768"/>
  </g>
</svg>
