<svg xmlns="http://www.w3.org/2000/svg" width="733.377" height="731.457" viewBox="0 0 733.377 731.457">
  <path id="Path_1346" data-name="Path 1346" d="M993.847,670.97c-88.279,0-197-44.492-297.835-123.073-113.107-88.145-187.06-196.408-197.819-289.6C486.207,167.827,532.824,90.823,633,35.63c99.652-54.9,219.426-79.536,302.355-90.534,107.515-12.424,168.059-4.473,209.027,27.452s63.478,88.7,77.688,195.957c9.6,83.13,14.97,205.29-13.919,315.336-29.047,110.629-92.328,174.643-183.007,185.127A238.426,238.426,0,0,1,993.847,670.97ZM1019.5-57.382c-24.238,0-51.909,1.886-83.764,5.571-82.639,10.96-202,35.5-301.232,90.174C535.547,92.881,489.481,168.8,501.287,257.912c10.669,92.409,84.179,199.884,196.643,287.525s234.646,132.642,326.829,120.439c89.322-10.328,151.684-73.547,180.376-182.824,28.767-109.578,23.406-231.325,13.841-314.162-14.087-106.332-36.256-162.512-76.509-193.879C1114.243-46.987,1076.351-57.382,1019.5-57.382Z" transform="translate(-496.349 60.488)" fill="#88a1a1"/>
</svg>
